<svg width="16" height="16" viewBox="0 0 16 16" fill="none" xmlns="http://www.w3.org/2000/svg">
<path fill-rule="evenodd" clip-rule="evenodd" d="M4.18401 5.76798C4.29862 5.65772 4.45232 5.59747 4.61132 5.60047C4.77033 5.60347 4.92165 5.66948 5.03201 5.78398L8.00001 8.75198L10.968 5.78398C11.0229 5.72503 11.0892 5.67775 11.1628 5.64496C11.2364 5.61217 11.3158 5.59453 11.3964 5.59311C11.477 5.59169 11.557 5.60651 11.6317 5.63669C11.7064 5.66686 11.7743 5.71178 11.8312 5.76875C11.8882 5.82573 11.9331 5.8936 11.9633 5.96831C11.9935 6.04302 12.0083 6.12304 12.0069 6.2036C12.0055 6.28416 11.9878 6.36362 11.955 6.43722C11.9222 6.51081 11.875 6.57705 11.816 6.63198L8.42401 10.024C8.31151 10.1363 8.15901 10.1995 8.00001 10.1995C7.84101 10.1995 7.68851 10.1363 7.57601 10.024L4.16801 6.63198C4.11097 6.57495 4.06601 6.50699 4.03583 6.43218C4.00564 6.35737 3.99086 6.27724 3.99235 6.19658C3.99385 6.11593 4.01159 6.0364 4.04452 5.96276C4.07745 5.88912 4.12489 5.82287 4.18401 5.76798Z" fill="black"/>
</svg>