<svg width="30" height="30" viewBox="0 0 64 64" fill="none" xmlns="http://www.w3.org/2000/svg">
<path d="M8 16C8 13.7909 9.79086 12 12 12H30C32.2091 12 34 13.7909 34 16V48C34 50.2091 32.2091 52 30 52H12C9.79086 52 8 50.2091 8 48V16Z" fill="#F2F2F2" stroke="#2F2F2F" stroke-width="2"/>
<path d="M56 16C56 13.7909 54.2091 12 52 12H34C31.7909 12 30 13.7909 30 16V48C30 50.2091 31.7909 52 34 52H52C54.2091 52 56 50.2091 56 48V16Z" fill="white" stroke="#2F2F2F" stroke-width="2"/>
<path d="M32 14V50" stroke="#999999" stroke-dasharray="2 2"/>
<path d="M32 12C34.2091 12 36 10.2091 36 8C36 5.79086 34.2091 4 32 4C29.7909 4 28 5.79086 28 8C28 10.2091 29.7909 12 32 12Z" fill="#FFD54F"/>
<path d="M32 2V0" stroke="#FFD54F"/>
<path d="M36 4L38 2" stroke="#FFD54F"/>
<path d="M28 4L26 2" stroke="#FFD54F"/>
<path d="M44 8H46V10H48V12H46V14H44V12H42V10H44V8Z" fill="#4FC3F7"/>
</svg>