<svg width="30" height="30" viewBox="0 0 30 30" fill="none" xmlns="http://www.w3.org/2000/svg">
<path fill-rule="evenodd" clip-rule="evenodd" d="M15 2.5C8.09625 2.5 2.5 8.09625 2.5 15C2.5 20.5225 6.08125 25.2075 11.0487 26.8612C11.6737 26.9762 11.9012 26.59 11.9012 26.2588C11.9012 25.9625 11.89 25.1738 11.8837 24.13C8.40625 24.8863 7.6725 22.4525 7.6725 22.4525C7.105 21.0087 6.285 20.6225 6.285 20.6225C5.15 19.8475 6.37125 19.8625 6.37125 19.8625C7.62625 19.95 8.28625 21.1512 8.28625 21.1512C9.40125 23.0625 11.2125 22.5112 11.9237 22.1912C12.0387 21.3825 12.3612 20.8312 12.7188 20.5163C9.94375 20.2013 7.025 19.1287 7.025 14.3375C7.025 12.975 7.5125 11.86 8.31125 10.9875C8.1825 10.6713 7.75375 9.4 8.43375 7.68C8.43375 7.68 9.48375 7.34375 11.8713 8.96125C12.8916 8.68821 13.9437 8.5516 15 8.555C16.0625 8.56 17.1312 8.69875 18.13 8.97625C20.5163 7.35875 21.5637 7.695 21.5637 7.695C22.2463 9.415 21.8162 10.6862 21.6887 11.0025C22.4888 11.875 22.9737 12.99 22.9737 14.3525C22.9737 19.155 20.05 20.2112 17.2662 20.5225C17.715 20.91 18.1138 21.6725 18.1138 22.8413C18.1138 24.5138 18.0988 25.865 18.0988 26.2788C18.0988 26.6138 18.3237 27.0037 18.9587 26.8787C21.4485 26.0449 23.6129 24.4491 25.1458 22.3173C26.6786 20.1855 27.5022 17.6257 27.5 15C27.5 8.09625 21.9037 2.5 15 2.5Z" fill="black"/>
</svg>