<svg width="25" height="25" viewBox="0 0 24 24" fill="none" xmlns="http://www.w3.org/2000/svg">
<g clip-path="url(#clip0_57_22)">
<path d="M20.447 20.452H16.893V14.883C16.893 13.555 16.869 11.846 15.043 11.846C13.191 11.846 12.907 13.293 12.907 14.79V20.452H9.354V9.75H12.769V11.267H12.817C13.293 10.367 14.454 9.417 16.184 9.417C19.789 9.417 20.454 11.789 20.454 14.877V20.452H20.447ZM5.337 8.233C4.193 8.233 3.264 7.305 3.264 6.16C3.264 5.016 4.193 4.087 5.337 4.087C6.482 4.087 7.41 5.016 7.41 6.16C7.41 7.305 6.482 8.233 5.337 8.233ZM7.114 20.452H3.56V9.75H7.114V20.452ZM22.225 0H1.771C0.792 0 0 0.792 0 1.771V22.229C0 23.208 0.792 24 1.771 24H22.229C23.208 24 24 23.208 24 22.229V1.771C24 0.792 23.208 0 22.225 0Z" fill="black"/>
</g>
<defs>
<clipPath id="clip0_57_22">
<rect width="24" height="24" fill="white"/>
</clipPath>
</defs>
</svg>